# xmcd CD database file
#
# Track frame offsets:
#	150
#	12497
#	26956
#	38368
#	48388
#	61957
#	79671
#	91792
#	102084
#	112372
#	125039
#	136442
#	148854
#	162282
#	173722
#	185500
#	196410
#	208940
#	221721
#	234569
#
# Disc length: 3302 seconds
#
# Revision: 0
# Processed by: cddbd v1.5.2PL0 Copyright (c) Steve Scherf et al.
# Submitted via: CDex 1.70beta2
#
DISCID=280ce414
DTITLE=King, B.B. - Can't kick the Blues
DYEAR=0746
DGENRE=Blues
TTITLE0=Everyday I have the Blues
TTITLE1=The woman I love
TTITLE2=Early in the morning
TTITLE3=Bad luck soul
TTITLE4=Three o'clock Blues
TTITLE5=Hold that train
TTITLE6=Sugar Mama
TTITLE7=Treat me right
TTITLE8=That ain't the way to do it
TTITLE9=Sweet thing
TTITLE10=The fool
TTITLE11=Please love me
TTITLE12=You upset me baby
TTITLE13=Please accept my love
TTITLE14=You've been an angel
TTITLE15=Let's do the boogie
TTITLE16=What can I do
TTITLE17=Tomorrow is another day
TTITLE18=Why do things happen to me
TTITLE19=Troubles, Troubles, Troubles
EXTD=YEAR: 0746
EXTT0=
EXTT1=
EXTT2=
EXTT3=
EXTT4=
EXTT5=
EXTT6=
EXTT7=
EXTT8=
EXTT9=
EXTT10=
EXTT11=
EXTT12=
EXTT13=
EXTT14=
EXTT15=
EXTT16=
EXTT17=
EXTT18=
EXTT19=
PLAYORDER=
